<svg xmlns="http://www.w3.org/2000/svg" viewBox="0 0 128.15 118.86"><defs><style>.cls-2{fill:#2cb24a}</style></defs><g id="레이어_2"><g id="네이버블로그"><path d="M15.61 26.19h97.06v44.55H15.61z" style="fill:#fff"/><path d="M28 43.86a4.42 4.42 0 1 0 4.42 4.41A4.42 4.42 0 0 0 28 43.86M71.55 43.4a4.75 4.75 0 1 0 4.75 4.75 4.75 4.75 0 0 0-4.75-4.75" class="cls-2"/><path d="M111 0H17.14A17.14 17.14 0 0 0 0 17.14v55.71A17.14 17.14 0 0 0 17.14 90H50.3l11.27 26.57s.78 2.3 2.66 2.3 2.65-2.3 2.65-2.3L78.16 90H111a17.14 17.14 0 0 0 17.14-17.14V17.14A17.14 17.14 0 0 0 111 0M40.26 49.24c0 10.19-10.58 10.48-10.58 10.48A8.8 8.8 0 0 1 23.31 57v1.84h-7.67V27.23c.47.08 7.67 0 7.67 0v12.1c1.8-3.08 7-3 7-3 11.37 1.01 9.95 12.91 9.95 12.91m13.5-12v21.67h-7.51V37.47c0-2.91-3.61-3.72-3.61-3.72v-7.56c11.98.48 11.12 11.07 11.12 11.07Zm17.79 22.49c-7 0-12.58-5.18-12.58-11.58s5.63-11.58 12.58-11.58 12.58 5.18 12.58 11.58-5.63 11.58-12.58 11.58m41.12 0s.11 11-11.07 11h-3.4v-7.12h2s4.7.43 4.64-6.81c0 0-.91 2.93-7.5 2.93 0 0-9.34-.67-9.34-9.78v-3.46a10.66 10.66 0 0 1 10.47-10.2 7.63 7.63 0 0 1 6.54 2.91v-2.32h7.61Z" style="fill:#2db400"/><path d="M100.74 43.51a4.64 4.64 0 1 0 4.64 4.64 4.65 4.65 0 0 0-4.64-4.64" class="cls-2"/></g></g></svg>