<svg width="21" height="21" viewBox="0 0 21 21" fill="none" xmlns="http://www.w3.org/2000/svg">
<g clip-path="url(#clip0_119_12043)">
<path d="M19.2897 15.9427C19.2897 16.3847 19.1141 16.8087 18.8016 17.1212C18.489 17.4338 18.0651 17.6094 17.623 17.6094H4.28971C3.84769 17.6094 3.42376 17.4338 3.1112 17.1212C2.79864 16.8087 2.62305 16.3847 2.62305 15.9427V4.27604C2.62305 3.83401 2.79864 3.41009 3.1112 3.09753C3.42376 2.78497 3.84769 2.60938 4.28971 2.60938H8.45638L10.123 5.10937H17.623C18.0651 5.10937 18.489 5.28497 18.8016 5.59753C19.1141 5.91009 19.2897 6.33401 19.2897 6.77604V15.9427Z" stroke="#B2B2C6" stroke-width="2" stroke-linecap="round" stroke-linejoin="round"/>
</g>
<defs>
<clipPath id="clip0_119_12043">
<rect width="20" height="20" fill="white" transform="translate(0.956055 0.109375)"/>
</clipPath>
</defs>
</svg>
