<svg width="25" height="25" viewBox="0 0 25 25" fill="none" xmlns="http://www.w3.org/2000/svg">
<path d="M3.33984 6.91602H5.33984H21.3398" stroke="rgb(42, 40, 40)" stroke-width="2" stroke-linecap="round" stroke-linejoin="round"/>
<path d="M8.33984 6.91602V4.91602C8.33984 4.38558 8.55056 3.87687 8.92563 3.5018C9.3007 3.12673 9.80941 2.91602 10.3398 2.91602H14.3398C14.8703 2.91602 15.379 3.12673 15.7541 3.5018C16.1291 3.87687 16.3398 4.38558 16.3398 4.91602V6.91602M19.3398 6.91602V20.916C19.3398 21.4464 19.1291 21.9552 18.7541 22.3302C18.379 22.7053 17.8703 22.916 17.3398 22.916H7.33984C6.80941 22.916 6.3007 22.7053 5.92563 22.3302C5.55056 21.9552 5.33984 21.4464 5.33984 20.916V6.91602H19.3398Z" stroke="rgb(42, 40, 40)" stroke-width="2" stroke-linecap="round" stroke-linejoin="round"/>
<path d="M10.3398 11.916V17.916" stroke="rgb(42, 40, 40)" stroke-width="2" stroke-linecap="round" stroke-linejoin="round"/>
<path d="M14.3398 11.916V17.916" stroke="rgb(42, 40, 40)" stroke-width="2" stroke-linecap="round" stroke-linejoin="round"/>
</svg>
