<svg width="25" height="25" viewBox="0 0 25 25" fill="none" xmlns="http://www.w3.org/2000/svg">
<g clip-path="url(#clip0_484_4712)">
<path d="M8.33984 17.916L12.3398 21.916L16.3398 17.916" stroke="rgb(42, 40, 40)" stroke-width="2" stroke-linecap="round" stroke-linejoin="round"/>
<path d="M12.3398 12.916V21.916" stroke="rgb(42, 40, 40)" stroke-width="2" stroke-linecap="round" stroke-linejoin="round"/>
<path d="M21.2198 19.0059C22.0892 18.3946 22.7411 17.5221 23.0811 16.5151C23.421 15.5081 23.4312 14.419 23.1102 13.4058C22.7892 12.3926 22.1536 11.508 21.2958 10.8805C20.4381 10.253 19.4026 9.91512 18.3398 9.91595H17.0798C16.779 8.74382 16.2163 7.6552 15.4339 6.73203C14.6515 5.80886 13.6699 5.07521 12.563 4.5863C11.456 4.0974 10.2526 3.86598 9.0433 3.90947C7.83399 3.95295 6.65029 4.27022 5.58133 4.83737C4.51237 5.40453 3.586 6.2068 2.87196 7.18378C2.15793 8.16076 1.67483 9.28699 1.45904 10.4777C1.24325 11.6684 1.30039 12.8925 1.62616 14.058C1.95193 15.2234 2.53784 16.2997 3.33978 17.2059" stroke="rgb(42, 40, 40)" stroke-width="2" stroke-linecap="round" stroke-linejoin="round"/>
</g>
<defs>
<clipPath id="clip0_484_4712">
<rect width="24" height="24" fill="rgb(42, 40, 40)" transform="translate(0.339844 0.916016)"/>
</clipPath>
</defs>
</svg>
