<svg width="21" height="20" viewBox="0 0 21 20" fill="none" xmlns="http://www.w3.org/2000/svg">
<g clip-path="url(#clip0_147_1952)">
<path d="M18.4867 15.8333C18.4867 16.2754 18.3111 16.6993 17.9986 17.0118C17.686 17.3244 17.2621 17.5 16.8201 17.5H3.48674C3.04471 17.5 2.62078 17.3244 2.30822 17.0118C1.99566 16.6993 1.82007 16.2754 1.82007 15.8333V4.16667C1.82007 3.72464 1.99566 3.30072 2.30822 2.98816C2.62078 2.67559 3.04471 2.5 3.48674 2.5H7.6534L9.32007 5H16.8201C17.2621 5 17.686 5.17559 17.9986 5.48816C18.3111 5.80072 18.4867 6.22464 18.4867 6.66667V15.8333Z" stroke="#B2B2C6" stroke-width="2" stroke-linecap="round" stroke-linejoin="round"/>
</g>
<defs>
<clipPath id="clip0_147_1952">
<rect width="20" height="20" fill="white" transform="translate(0.15332)"/>
</clipPath>
</defs>
</svg>
