<svg width="25" height="25" viewBox="0 0 25 25" fill="none" xmlns="http://www.w3.org/2000/svg">
<path d="M6.96973 3.66602V15.666" stroke="white" stroke-width="1.5" stroke-linecap="round" stroke-linejoin="round"/>
<path d="M18.9697 9.66602C20.6266 9.66602 21.9697 8.32287 21.9697 6.66602C21.9697 5.00916 20.6266 3.66602 18.9697 3.66602C17.3129 3.66602 15.9697 5.00916 15.9697 6.66602C15.9697 8.32287 17.3129 9.66602 18.9697 9.66602Z" stroke="white" stroke-width="1.5" stroke-linecap="round" stroke-linejoin="round"/>
<path d="M6.96973 21.666C8.62658 21.666 9.96973 20.3229 9.96973 18.666C9.96973 17.0092 8.62658 15.666 6.96973 15.666C5.31287 15.666 3.96973 17.0092 3.96973 18.666C3.96973 20.3229 5.31287 21.666 6.96973 21.666Z" stroke="white" stroke-width="1.5" stroke-linecap="round" stroke-linejoin="round"/>
<path d="M18.9697 9.66602C18.9697 12.053 18.0215 14.3421 16.3337 16.03C14.6459 17.7178 12.3567 18.666 9.96973 18.666" stroke="white" stroke-width="1.5" stroke-linecap="round" stroke-linejoin="round"/>
</svg>
