<svg width="25" height="25" viewBox="0 0 25 25" fill="none" xmlns="http://www.w3.org/2000/svg">
<path d="M21.3892 13.3681C21.2319 15.0703 20.593 16.6925 19.5474 18.0449C18.5018 19.3973 17.0927 20.4239 15.4849 21.0047C13.8771 21.5854 12.1372 21.6962 10.4687 21.3242C8.8002 20.9522 7.27218 20.1127 6.06341 18.9039C4.85464 17.6951 4.01512 16.1671 3.64309 14.4986C3.27106 12.8301 3.3819 11.0902 3.96264 9.48242C4.54339 7.87463 5.57001 6.46549 6.9224 5.41988C8.27478 4.37426 9.89698 3.73543 11.5992 3.57812C10.6026 4.92639 10.123 6.58757 10.2477 8.25954C10.3724 9.9315 11.093 11.5032 12.2786 12.6887C13.4641 13.8743 15.0358 14.5949 16.7078 14.7196C18.3797 14.8443 20.0409 14.3647 21.3892 13.3681Z" stroke="#414141" stroke-width="2" stroke-linecap="round" stroke-linejoin="round"/>
</svg>
