<svg width="25" height="25" viewBox="0 0 25 25" fill="none" xmlns="http://www.w3.org/2000/svg">
<path d="M17.3398 2.91602H7.33984C4.57842 2.91602 2.33984 5.15459 2.33984 7.91602V17.916C2.33984 20.6774 4.57842 22.916 7.33984 22.916H17.3398C20.1013 22.916 22.3398 20.6774 22.3398 17.916V7.91602C22.3398 5.15459 20.1013 2.91602 17.3398 2.91602Z" stroke="#f0f2fe" stroke-width="2" stroke-linecap="round" stroke-linejoin="round"/>
<path d="M16.3398 12.2863C16.4632 13.1186 16.3211 13.9685 15.9336 14.7153C15.5461 15.4621 14.9329 16.0677 14.1814 16.446C13.4299 16.8243 12.5782 16.9559 11.7476 16.8222C10.9169 16.6886 10.1496 16.2964 9.55463 15.7015C8.95971 15.1066 8.56753 14.3392 8.43386 13.5085C8.3002 12.6779 8.43186 11.8262 8.81012 11.0747C9.18838 10.3232 9.79398 9.71006 10.5408 9.32256C11.2876 8.93506 12.1375 8.79291 12.9698 8.91632C13.8187 9.0422 14.6046 9.43778 15.2115 10.0446C15.8183 10.6515 16.2139 11.4374 16.3398 12.2863Z" stroke="#f0f2fe" stroke-width="2" stroke-linecap="round" stroke-linejoin="round"/>
<path d="M17.8398 7.41602H17.8498" stroke="#f0f2fe" stroke-width="2" stroke-linecap="round" stroke-linejoin="round"/>
</svg>
