<svg width="25" height="25" viewBox="0 0 25 25" fill="none" xmlns="http://www.w3.org/2000/svg">
<path fill-rule="evenodd" clip-rule="evenodd" d="M12.4961 3.7832C13.3241 3.7832 13.9961 4.4552 13.9961 5.2832C13.9961 6.1112 13.3241 6.7832 12.4961 6.7832C11.6681 6.7832 10.9961 6.1112 10.9961 5.2832C10.9961 4.4552 11.6681 3.7832 12.4961 3.7832ZM13.9961 12.2832C13.9961 11.4552 13.3241 10.7832 12.4961 10.7832C11.6681 10.7832 10.9961 11.4552 10.9961 12.2832C10.9961 13.1112 11.6681 13.7832 12.4961 13.7832C13.3241 13.7832 13.9961 13.1112 13.9961 12.2832ZM13.9961 19.2832C13.9961 18.4552 13.3241 17.7832 12.4961 17.7832C11.6681 17.7832 10.9961 18.4552 10.9961 19.2832C10.9961 20.1112 11.6681 20.7832 12.4961 20.7832C13.3241 20.7832 13.9961 20.1112 13.9961 19.2832Z" fill="#9D9FAA"/>
</svg>
