<svg width="25" height="25" viewBox="0 0 25 25" fill="none" xmlns="http://www.w3.org/2000/svg">
    <g clip-path="url(#clip0_484_4703)">
        <path d="M12.3398 15.916C13.9967 15.916 15.3398 14.5729 15.3398 12.916C15.3398 11.2592 13.9967 9.91602 12.3398 9.91602C10.683 9.91602 9.33984 11.2592 9.33984 12.916C9.33984 14.5729 10.683 15.916 12.3398 15.916Z" stroke="#ffffff" stroke-width="2" stroke-linecap="round" stroke-linejoin="round"/>
        <path d="M19.7398 15.916C19.6067 16.2176 19.567 16.5522 19.6258 16.8766C19.6847 17.201 19.8393 17.5003 20.0698 17.736L20.1298 17.796C20.3158 17.9818 20.4633 18.2023 20.564 18.4451C20.6646 18.6879 20.7164 18.9482 20.7164 19.211C20.7164 19.4738 20.6646 19.7341 20.564 19.9769C20.4633 20.2197 20.3158 20.4403 20.1298 20.626C19.9441 20.812 19.7235 20.9595 19.4807 21.0601C19.2379 21.1608 18.9777 21.2126 18.7148 21.2126C18.452 21.2126 18.1918 21.1608 17.949 21.0601C17.7062 20.9595 17.4856 20.812 17.2998 20.626L17.2398 20.566C17.0042 20.3355 16.7048 20.1808 16.3804 20.122C16.056 20.0632 15.7215 20.1029 15.4198 20.236C15.1241 20.3628 14.8718 20.5733 14.6942 20.8416C14.5165 21.1098 14.4211 21.4242 14.4198 21.746V21.916C14.4198 22.4464 14.2091 22.9552 13.8341 23.3302C13.459 23.7053 12.9503 23.916 12.4198 23.916C11.8894 23.916 11.3807 23.7053 11.0056 23.3302C10.6306 22.9552 10.4198 22.4464 10.4198 21.916V21.826C10.4121 21.495 10.305 21.174 10.1124 20.9047C9.91975 20.6354 9.65058 20.4303 9.33984 20.316C9.03823 20.1829 8.70365 20.1432 8.37926 20.202C8.05486 20.2608 7.75552 20.4155 7.51984 20.646L7.45984 20.706C7.2741 20.892 7.05352 21.0395 6.81072 21.1401C6.56793 21.2408 6.30767 21.2926 6.04484 21.2926C5.78201 21.2926 5.52176 21.2408 5.27896 21.1401C5.03617 21.0395 4.81559 20.892 4.62984 20.706C4.44389 20.5203 4.29637 20.2997 4.19572 20.0569C4.09508 19.8141 4.04327 19.5538 4.04327 19.291C4.04327 19.0282 4.09508 18.7679 4.19572 18.5251C4.29637 18.2823 4.44389 18.0618 4.62984 17.876L4.68984 17.816C4.92038 17.5803 5.07503 17.281 5.13385 16.9566C5.19267 16.6322 5.15296 16.2976 5.01984 15.996C4.89308 15.7002 4.6826 15.448 4.41431 15.2703C4.14602 15.0926 3.83163 14.9973 3.50984 14.996H3.33984C2.80941 14.996 2.3007 14.7853 1.92563 14.4102C1.55056 14.0352 1.33984 13.5264 1.33984 12.996C1.33984 12.4656 1.55056 11.9569 1.92563 11.5818C2.3007 11.2067 2.80941 10.996 3.33984 10.996H3.42984C3.76084 10.9883 4.08185 10.8811 4.35114 10.6885C4.62044 10.4959 4.82556 10.2268 4.93984 9.91602C5.07296 9.6144 5.11267 9.27982 5.05385 8.95543C4.99503 8.63103 4.84038 8.33169 4.60984 8.09602L4.54984 8.03602C4.36389 7.85027 4.21637 7.62969 4.11572 7.3869C4.01508 7.1441 3.96327 6.88385 3.96327 6.62102C3.96327 6.35818 4.01508 6.09793 4.11572 5.85513C4.21637 5.61234 4.36389 5.39176 4.54984 5.20602C4.73559 5.02006 4.95617 4.87254 5.19896 4.7719C5.44176 4.67125 5.70201 4.61944 5.96484 4.61944C6.22767 4.61944 6.48793 4.67125 6.73072 4.7719C6.97352 4.87254 7.1941 5.02006 7.37984 5.20602L7.43984 5.26602C7.67552 5.49655 7.97486 5.6512 8.29925 5.71002C8.62365 5.76884 8.95823 5.72913 9.25984 5.59602H9.33984C9.63561 5.46925 9.88786 5.25877 10.0655 4.99048C10.2432 4.72219 10.3386 4.4078 10.3398 4.08602V3.91602C10.3398 3.38558 10.5506 2.87687 10.9256 2.5018C11.3007 2.12673 11.8094 1.91602 12.3398 1.91602C12.8703 1.91602 13.379 2.12673 13.7541 2.5018C14.1291 2.87687 14.3398 3.38558 14.3398 3.91602V4.00602C14.3411 4.3278 14.4365 4.64219 14.6142 4.91048C14.7918 5.17877 15.0441 5.38925 15.3398 5.51602C15.6415 5.64913 15.976 5.68884 16.3004 5.63002C16.6248 5.5712 16.9242 5.41655 17.1598 5.18602L17.2198 5.12602C17.4056 4.94006 17.6262 4.79254 17.869 4.6919C18.1118 4.59125 18.372 4.53944 18.6348 4.53944C18.8977 4.53944 19.1579 4.59125 19.4007 4.6919C19.6435 4.79254 19.8641 4.94006 20.0498 5.12602C20.2358 5.31176 20.3833 5.53234 20.484 5.77514C20.5846 6.01793 20.6364 6.27818 20.6364 6.54102C20.6364 6.80385 20.5846 7.0641 20.484 7.3069C20.3833 7.54969 20.2358 7.77027 20.0498 7.95602L19.9898 8.01602C19.7593 8.25169 19.6047 8.55103 19.5458 8.87543C19.487 9.19982 19.5267 9.5344 19.6598 9.83602V9.91602C19.7866 10.2118 19.9971 10.464 20.2654 10.6417C20.5337 10.8194 20.8481 10.9147 21.1698 10.916H21.3398C21.8703 10.916 22.379 11.1267 22.7541 11.5018C23.1291 11.8769 23.3398 12.3856 23.3398 12.916C23.3398 13.4464 23.1291 13.9552 22.7541 14.3302C22.379 14.7053 21.8703 14.916 21.3398 14.916H21.2498C20.9281 14.9173 20.6137 15.0126 20.3454 15.1903C20.0771 15.368 19.8666 15.6202 19.7398 15.916V15.916Z" stroke="#ffffff" stroke-width="2" stroke-linecap="round" stroke-linejoin="round"/>
    </g>
    <defs>
        <clipPath id="clip0_484_4703">
            <rect width="24" height="24" fill="white" transform="translate(0.339844 0.916016)"/>
        </clipPath>
    </defs>
</svg>
