<svg width="41" height="40" viewBox="0 0 41 40" fill="none" xmlns="http://www.w3.org/2000/svg">
<path d="M5.76758 20C5.76758 11.7157 12.4833 5 20.7676 5C29.0519 5 35.7676 11.7157 35.7676 20C35.7676 28.2843 29.0519 35 20.7676 35C12.4833 35 5.76758 28.2843 5.76758 20Z" fill="#B57DFD"/>
<path d="M20.7676 23.3333C24.4495 23.3333 27.4343 20.3486 27.4343 16.6667C27.4343 12.9848 24.4495 10 20.7676 10C17.0857 10 14.101 12.9848 14.101 16.6667C14.101 20.3486 17.0857 23.3333 20.7676 23.3333Z" fill="#8E56D6"/>
<path fill-rule="evenodd" clip-rule="evenodd" d="M31.1354 30.5739C31.2324 30.7289 31.2027 30.9272 31.0664 31.0512C28.3795 33.4986 24.7552 34.9992 20.7672 34.9992C16.7793 34.9992 13.1549 33.4988 10.4681 31.0514C10.3318 30.9272 10.3022 30.729 10.3992 30.5741C12.3395 27.4754 16.2541 25.3574 20.7674 25.3574C25.2804 25.3574 29.195 27.4752 31.1354 30.5739Z" fill="#8E56D6"/>
</svg>
